<svg width="24" height="23" viewBox="0 0 24 23" fill="none" xmlns="http://www.w3.org/2000/svg">
<path d="M0.73999 11.44C0.73999 9.92 1.03999 8.46 1.62999 7.07C2.21999 5.68 3.02999 4.49 4.02999 3.48C5.02999 2.47 6.22999 1.67 7.61999 1.08C9.00999 0.490002 10.46 0.190002 11.99 0.190002C13.52 0.190002 14.97 0.490002 16.36 1.08C17.75 1.67 18.95 2.48 19.96 3.48C20.97 4.48 21.77 5.68 22.36 7.07C22.95 8.46 23.25 9.91 23.25 11.44C23.25 12.97 22.95 14.42 22.36 15.81C21.77 17.2 20.96 18.4 19.96 19.41C18.96 20.42 17.76 21.22 16.36 21.81C14.96 22.4 13.51 22.7 11.99 22.7C10.47 22.7 9.00999 22.4 7.61999 21.81C6.22999 21.22 5.03999 20.41 4.02999 19.41C3.01999 18.41 2.21999 17.21 1.62999 15.81C1.03999 14.41 0.73999 12.97 0.73999 11.44ZM11.8 21.51H11.99C13.36 21.51 14.66 21.24 15.9 20.71C17.14 20.18 18.21 19.46 19.11 18.56C20.01 17.66 20.72 16.59 21.26 15.35C21.8 14.11 22.06 12.81 22.06 11.44C22.06 10.08 21.79 8.78 21.26 7.54C20.73 6.3 20.01 5.23 19.11 4.33C18.21 3.43 17.14 2.72 15.9 2.18C14.66 1.64 13.36 1.38 11.99 1.38H11.8V21.51Z" fill="white"/>
</svg>
