<svg width="24" height="23" viewBox="0 0 24 23" fill="none" xmlns="http://www.w3.org/2000/svg">
<path d="M0.73999 11.44C0.73999 13.48 1.23999 15.37 2.24999 17.09C3.25999 18.81 4.61999 20.19 6.34999 21.19C8.07999 22.19 9.95999 22.7 12 22.7C14.04 22.7 15.92 22.2 17.65 21.19C19.38 20.18 20.74 18.82 21.74 17.09C22.74 15.36 23.25 13.48 23.25 11.44C23.25 9.4 22.75 7.52 21.74 5.79C20.73 4.06 19.37 2.7 17.65 1.7C15.93 0.7 14.04 0.190001 12 0.190001C9.95999 0.190001 8.07999 0.7 6.34999 1.7C4.61999 2.7 3.24999 4.07 2.24999 5.79C1.24999 7.51 0.73999 9.4 0.73999 11.44Z" fill="white"/>
</svg>
