<svg width="24" height="23" viewBox="0 0 24 23" fill="none" xmlns="http://www.w3.org/2000/svg">
<path d="M0.73999 11.44C0.73999 9.92 1.03999 8.46 1.62999 7.07C2.21999 5.68 3.02999 4.49 4.02999 3.48C5.02999 2.47 6.22999 1.67 7.61999 1.08C9.00999 0.489999 10.46 0.189999 11.99 0.189999C13.52 0.189999 14.97 0.489999 16.36 1.08C17.75 1.67 18.95 2.48 19.96 3.48C20.97 4.48 21.77 5.68 22.36 7.07C22.95 8.46 23.25 9.91 23.25 11.44C23.25 12.97 22.95 14.42 22.36 15.81C21.77 17.2 20.96 18.4 19.96 19.41C18.96 20.42 17.76 21.22 16.36 21.81C14.96 22.4 13.51 22.7 11.99 22.7C10.47 22.7 9.00999 22.4 7.61999 21.81C6.22999 21.22 5.03999 20.41 4.02999 19.41C3.01999 18.41 2.21999 17.21 1.62999 15.81C1.03999 14.41 0.73999 12.97 0.73999 11.44ZM1.93999 11.44C1.93999 12.81 2.20999 14.11 2.73999 15.35C3.26999 16.59 3.98999 17.66 4.88999 18.56C5.78999 19.46 6.85999 20.17 8.09999 20.71C9.33999 21.25 10.64 21.51 12 21.51H12.21V1.39H12C10.64 1.39 9.33999 1.66 8.09999 2.19C6.85999 2.72 5.78999 3.44 4.88999 4.34C3.98999 5.24 3.27999 6.31 2.73999 7.55C2.19999 8.79 1.93999 10.09 1.93999 11.44Z" fill="white"/>
</svg>
