<svg width="24" height="23" viewBox="0 0 24 23" fill="none" xmlns="http://www.w3.org/2000/svg">
<path d="M0.73999 11.44C0.73999 9.91 1.03999 8.44 1.62999 7.05C2.21999 5.66 3.02999 4.46 4.02999 3.45C5.02999 2.44 6.22999 1.64 7.62999 1.05C9.02999 0.460004 10.48 0.160004 12 0.160004C13.53 0.160004 15 0.460004 16.39 1.05C17.78 1.64 18.98 2.45 19.99 3.45C21 4.45 21.8 5.65 22.39 7.05C22.98 8.45 23.28 9.9 23.28 11.44C23.28 12.96 22.98 14.42 22.39 15.81C21.8 17.2 20.99 18.4 19.99 19.41C18.99 20.42 17.79 21.22 16.39 21.81C14.99 22.4 13.54 22.7 12 22.7C10.48 22.7 9.01999 22.4 7.62999 21.81C6.23999 21.22 5.03999 20.41 4.02999 19.41C3.01999 18.41 2.21999 17.21 1.62999 15.81C1.03999 14.41 0.73999 12.97 0.73999 11.44ZM1.93999 11.44C1.93999 12.8 2.20999 14.1 2.73999 15.34C3.26999 16.58 3.98999 17.66 4.88999 18.56C5.78999 19.46 6.85999 20.17 8.10999 20.71C9.35999 21.25 10.66 21.51 12.01 21.51C13.38 21.51 14.68 21.24 15.92 20.71C17.16 20.18 18.23 19.46 19.14 18.56C20.05 17.66 20.76 16.59 21.29 15.34C21.82 14.09 22.09 12.79 22.09 11.44C22.09 9.62 21.64 7.94 20.74 6.39C19.84 4.84 18.61 3.62 17.06 2.71C15.51 1.8 13.83 1.36 12.01 1.36C10.65 1.36 9.34999 1.63 8.10999 2.16C6.86999 2.69 5.78999 3.41 4.88999 4.32C3.98999 5.23 3.27999 6.3 2.73999 7.54C2.19999 8.78 1.93999 10.08 1.93999 11.44Z" fill="white"/>
</svg>
