<svg width="24" height="23" viewBox="0 0 24 23" fill="none" xmlns="http://www.w3.org/2000/svg">
<path d="M0.73999 11.44C0.73999 9.92 1.03999 8.46 1.62999 7.07C2.21999 5.68 3.02999 4.49 4.02999 3.48C5.02999 2.47 6.22999 1.67 7.61999 1.08C9.00999 0.490002 10.46 0.190002 11.99 0.190002C13.52 0.190002 14.97 0.490002 16.36 1.08C17.75 1.67 18.95 2.48 19.96 3.48C20.97 4.48 21.77 5.68 22.36 7.07C22.95 8.46 23.25 9.91 23.25 11.44C23.25 12.97 22.95 14.42 22.36 15.81C21.77 17.2 20.96 18.4 19.96 19.41C18.96 20.42 17.76 21.22 16.36 21.81C14.96 22.4 13.51 22.7 11.99 22.7C10.47 22.7 9.00999 22.4 7.61999 21.81C6.22999 21.22 5.03999 20.41 4.02999 19.41C3.01999 18.41 2.21999 17.21 1.62999 15.81C1.03999 14.41 0.73999 12.97 0.73999 11.44ZM1.93999 11.44C1.93999 12.71 2.16999 13.93 2.63999 15.1C3.10999 16.27 3.72999 17.3 4.52999 18.18C5.32999 19.06 6.27999 19.79 7.37999 20.37C8.47999 20.95 9.65999 21.31 10.9 21.45C9.14999 20.41 7.91999 19.06 7.19999 17.38C6.47999 15.7 6.11999 13.72 6.11999 11.45C6.11999 9.38 6.55999 7.45 7.43999 5.67C8.31999 3.89 9.53999 2.47 11.1 1.43C9.83999 1.54 8.63999 1.88 7.50999 2.45C6.37999 3.02 5.40999 3.75 4.58999 4.64C3.76999 5.53 3.12999 6.56 2.65999 7.75C2.18999 8.94 1.93999 10.15 1.93999 11.44Z" fill="white"/>
</svg>
