<svg width="24" height="23" viewBox="0 0 24 23" fill="none" xmlns="http://www.w3.org/2000/svg">
<path d="M0.73999 11.44C0.73999 9.41 1.23999 7.53 2.24999 5.8C3.25999 4.07 4.61999 2.7 6.34999 1.7C8.07999 0.699998 9.95999 0.189999 11.99 0.189999C13.51 0.189999 14.97 0.489999 16.36 1.08C17.75 1.67 18.95 2.48 19.96 3.48C20.97 4.48 21.77 5.68 22.36 7.07C22.95 8.46 23.25 9.91 23.25 11.44C23.25 12.97 22.95 14.42 22.36 15.81C21.77 17.2 20.96 18.4 19.96 19.41C18.96 20.42 17.76 21.22 16.36 21.81C14.96 22.4 13.51 22.7 11.99 22.7C10.47 22.7 9.00999 22.4 7.61999 21.81C6.22999 21.22 5.02999 20.41 4.02999 19.41C3.02999 18.41 2.22999 17.21 1.62999 15.81C1.02999 14.41 0.73999 12.97 0.73999 11.44ZM7.53999 11.44C7.53999 15.88 8.70999 19.22 11.04 21.46C11.11 21.46 11.21 21.46 11.34 21.47C11.47 21.48 11.59 21.49 11.69 21.49C11.79 21.49 11.89 21.5 11.99 21.5C13.35 21.5 14.65 21.23 15.89 20.7C17.13 20.17 18.21 19.45 19.11 18.55C20.01 17.65 20.72 16.58 21.26 15.34C21.8 14.1 22.06 12.8 22.06 11.43C22.06 10.07 21.79 8.77 21.26 7.53C20.73 6.29 20.01 5.22 19.11 4.32C18.21 3.42 17.14 2.71 15.89 2.17C14.64 1.63 13.34 1.37 11.99 1.37C11.63 1.37 11.36 1.38 11.18 1.4C10.1 2.62 9.21999 4.09 8.53999 5.82C7.85999 7.55 7.53999 9.43 7.53999 11.44Z" fill="white"/>
</svg>
