<svg width="29" height="28" viewBox="0 0 29 28" fill="none" xmlns="http://www.w3.org/2000/svg">
<g id="cbi:air-presure">
<path id="Vector" d="M18.4584 7.92402C18.4083 7.89952 17.7689 8.40235 17.7188 8.37785L15.1183 13.6908C14.9188 13.6214 14.7108 13.5794 14.4999 13.566C13.8745 13.5666 13.2748 13.8154 12.8326 14.2576C12.3903 14.6999 12.1416 15.2996 12.1409 15.925C12.1457 16.3056 12.244 16.6791 12.4271 17.0128C12.6102 17.3464 12.8725 17.6299 13.1909 17.8383L12.1549 20.1028L12.9518 20.4692L14.0018 18.1837C14.1629 18.235 14.3292 18.2686 14.4976 18.284C15.1232 18.2834 15.723 18.0347 16.1654 17.5925C16.6079 17.1502 16.8568 16.5506 16.8578 15.925C16.8527 15.5645 16.7637 15.2101 16.5978 14.8899C16.432 14.5698 16.1938 14.2927 15.9023 14.0805L18.5039 8.76285C18.4573 8.73952 18.5086 7.94852 18.4584 7.92402ZM14.4999 17.5397C14.1806 17.5397 13.8684 17.445 13.6029 17.2676C13.3374 17.0901 13.1304 16.838 13.0082 16.5429C12.886 16.2479 12.854 15.9232 12.9163 15.61C12.9786 15.2968 13.1324 15.0091 13.3582 14.7833C13.584 14.5575 13.8717 14.4037 14.1849 14.3414C14.4982 14.2791 14.8228 14.311 15.1178 14.4333C15.4129 14.5555 15.6651 14.7624 15.8425 15.028C16.0199 15.2935 16.1146 15.6057 16.1146 15.925C16.1143 16.3532 15.9441 16.7637 15.6413 17.0664C15.3386 17.3692 14.9281 17.5394 14.4999 17.5397ZM22.6164 6.96735L21.6353 7.83302C22.6483 8.78856 23.457 9.93972 24.0122 11.2168C24.5675 12.494 24.8578 13.8705 24.8657 15.263C24.8735 16.6556 24.5987 18.0353 24.0579 19.3186C23.5171 20.6019 22.7215 21.7621 21.7193 22.729C19.4325 21.6102 16.9008 21.085 14.3576 21.2019C11.8924 21.1008 9.43953 21.6009 7.21061 22.659C6.21771 21.6821 5.43341 20.5138 4.90523 19.2249C4.37704 17.9359 4.11595 16.5532 4.13777 15.1605C4.15958 13.7677 4.46385 12.3939 5.03214 11.1221C5.60044 9.85038 6.42093 8.70722 7.44394 7.76185L6.46278 6.89618C5.27509 8.02161 4.33835 9.38506 3.71379 10.8974C3.08923 12.4097 2.79093 14.0368 2.83839 15.6723C2.88585 17.3078 3.27801 18.9149 3.98922 20.3885C4.70042 21.862 5.71466 23.1689 6.96561 24.2235L6.98428 24.2433C9.26767 23.0823 11.7961 22.4854 14.3576 22.5027C16.9854 22.484 19.5772 23.1135 21.9036 24.3355C23.1725 23.2941 24.2068 21.9961 24.9387 20.5268C25.6705 19.0574 26.0833 17.4498 26.15 15.8097C26.2166 14.1695 25.9356 12.5337 25.3254 11.0098C24.7153 9.48591 23.7897 8.10827 22.6094 6.96735H22.6164ZM14.4999 4.96768C16.9413 4.96645 19.3039 5.83129 21.1674 7.40835L22.1486 6.54268C20.0459 4.70006 17.3489 3.67821 14.5531 3.66493C11.7573 3.65164 9.05071 4.6478 6.93061 6.47035L7.91178 7.33602C9.76451 5.80255 12.0949 4.96481 14.4999 4.96768Z" fill="white"/>
</g>
</svg>
