<svg width="33" height="24" viewBox="0 0 33 24" fill="none" xmlns="http://www.w3.org/2000/svg">
<path d="M12.2961 20.233C12.455 20.5739 12.5345 20.9205 12.5345 21.2727C12.5345 21.6477 12.4664 22 12.3301 22.3295C12.1939 22.6591 11.9952 22.9489 11.7341 23.1989C11.4729 23.4489 11.1834 23.642 10.8655 23.7784C10.5476 23.9148 10.1956 23.9886 9.80961 24C9.43493 24 9.08297 23.9318 8.75371 23.7955C8.42445 23.6591 8.13493 23.4602 7.88515 23.1989C7.63537 22.9375 7.44236 22.6477 7.30611 22.3295C7.16987 22.0114 7.09607 21.6591 7.08472 21.2727C7.08472 20.9205 7.16419 20.5739 7.32314 20.233L9.80961 15.2727L12.2961 20.233ZM25.3755 20.233C25.5345 20.5739 25.614 20.9205 25.614 21.2727C25.614 21.6477 25.5459 22 25.4096 22.3295C25.2734 22.6591 25.0747 22.9489 24.8135 23.1989C24.5524 23.4489 24.2629 23.642 23.945 23.7784C23.6271 23.9148 23.2751 23.9886 22.8891 24C22.5144 24 22.1624 23.9318 21.8332 23.7955C21.5039 23.6591 21.2144 23.4602 20.9646 23.1989C20.7148 22.9375 20.5218 22.6477 20.3856 22.3295C20.2493 22.0114 20.1755 21.6591 20.1642 21.2727C20.1642 20.9205 20.2437 20.5739 20.4026 20.233L22.8891 15.2727L25.3755 20.233ZM18.8358 15.8693C18.9948 16.2102 19.0742 16.5568 19.0742 16.9091C19.0742 17.2841 19.0061 17.6364 18.8699 17.9659C18.7336 18.2955 18.5349 18.5852 18.2738 18.8352C18.0127 19.0852 17.7231 19.2784 17.4052 19.4148C17.0873 19.5511 16.7354 19.625 16.3493 19.6364C15.9747 19.6364 15.6227 19.5682 15.2934 19.4318C14.9642 19.2955 14.6747 19.0966 14.4249 18.8352C14.1751 18.5739 13.9821 18.2841 13.8459 17.9659C13.7096 17.6477 13.6358 17.2955 13.6245 16.9091C13.6245 16.5568 13.7039 16.2102 13.8629 15.8693L16.3493 10.9091L18.8358 15.8693ZM27.8109 6.75C28.5262 6.94318 29.179 7.23864 29.7694 7.63636C30.3598 8.03409 30.8764 8.51705 31.3192 9.08523C31.762 9.65341 32.1026 10.2727 32.341 10.9432C32.5795 11.6136 32.6987 12.3295 32.6987 13.0909C32.6987 13.8409 32.5738 14.5568 32.324 15.2386C32.0742 15.9205 31.7279 16.5455 31.2852 17.1136C30.8424 17.6818 30.3144 18.1648 29.7013 18.5625C29.0882 18.9602 28.4183 19.25 27.6917 19.4318L26.6699 17.3864C27.2148 17.3182 27.7201 17.1648 28.1856 16.9261C28.6511 16.6875 29.0598 16.3693 29.4118 15.9716C29.7638 15.5739 30.0306 15.1364 30.2122 14.6591C30.3939 14.1818 30.4961 13.6591 30.5188 13.0909C30.5188 12.4659 30.4052 11.8864 30.1782 11.3523C29.9511 10.8182 29.6275 10.358 29.2074 9.97159C28.7873 9.58523 28.3105 9.28409 27.7769 9.06818C27.2432 8.85227 26.6642 8.73864 26.0397 8.72727C25.9035 7.79545 25.614 6.93182 25.1712 6.13636C24.7284 5.34091 24.1777 4.64773 23.5192 4.05682C22.8607 3.46591 22.1 3.00568 21.2371 2.67614C20.3742 2.34659 19.4716 2.18182 18.5293 2.18182C17.655 2.18182 16.8262 2.32386 16.0428 2.60795C15.2594 2.89205 14.5384 3.28409 13.8799 3.78409C13.2214 4.28409 12.6651 4.88636 12.2109 5.59091C11.7568 6.29545 11.4105 7.0625 11.1721 7.89205C10.6725 7.46023 10.1218 7.13068 9.52009 6.90341C8.91834 6.67614 8.28821 6.55682 7.62969 6.54545C6.88035 6.54545 6.17642 6.6875 5.5179 6.97159C4.85939 7.25568 4.28035 7.64205 3.78079 8.13068C3.28122 8.61932 2.88952 9.19886 2.60568 9.86932C2.32183 10.5398 2.17991 11.25 2.17991 12C2.17991 12.6023 2.27642 13.1818 2.46943 13.7386C2.66245 14.2955 2.92926 14.8011 3.26987 15.2557C3.61048 15.7102 4.02489 16.108 4.5131 16.4489C5.00131 16.7898 5.53493 17.0455 6.11397 17.2159L5.14323 19.1591C4.38253 18.8977 3.68996 18.5284 3.0655 18.0511C2.44105 17.5739 1.89607 17.0227 1.43057 16.3977C0.965065 15.7727 0.6131 15.0909 0.374672 14.3523C0.136245 13.6136 0.0113537 12.8295 0 12C0 10.9432 0.19869 9.95455 0.59607 9.03409C0.99345 8.11364 1.53843 7.30682 2.231 6.61364C2.92358 5.92045 3.72969 5.375 4.64934 4.97727C5.569 4.57955 6.56245 4.375 7.62969 4.36364C8.46987 4.36364 9.30437 4.50568 10.1332 4.78977C10.576 4.05114 11.0983 3.38636 11.7 2.79545C12.3017 2.20455 12.9659 1.70455 13.6926 1.29545C14.4192 0.886364 15.1913 0.568182 16.0087 0.340909C16.8262 0.113636 17.6664 0 18.5293 0C19.5852 0 20.5956 0.164773 21.5607 0.494318C22.5258 0.823864 23.4227 1.28409 24.2515 1.875C25.0803 2.46591 25.7956 3.17614 26.3974 4.00568C26.9991 4.83523 27.4703 5.75 27.8109 6.75Z" fill="white"/>
</svg>
