<svg width="29" height="24" viewBox="0 0 29 24" fill="none" xmlns="http://www.w3.org/2000/svg">
<g id="&#240;&#159;&#166;&#134; icon &#34;sunset&#34;">
<path id="Vector" d="M0.912964 13.5814C0.912964 13.2677 1.02502 13.0211 1.24914 12.8194C1.43964 12.6177 1.69737 12.5281 2.01113 12.5281H4.59967C4.90223 12.5281 5.14875 12.6289 5.35046 12.8306C5.54096 13.0323 5.64181 13.2789 5.64181 13.5814C5.64181 13.8952 5.54096 14.1641 5.33925 14.377C5.13755 14.5899 4.89102 14.702 4.59967 14.702H2.02234C1.71978 14.702 1.46205 14.5899 1.24914 14.3658C1.02502 14.1417 0.912964 13.884 0.912964 13.5814ZM4.59967 4.77367C4.59967 4.4599 4.68932 4.20217 4.87981 4.01167C5.10393 3.78756 5.36166 3.6755 5.66422 3.6755C5.98919 3.6755 6.23571 3.78756 6.42621 4.01167L8.24155 5.83822C8.75702 6.33127 8.75702 6.83553 8.24155 7.351C8.02864 7.56391 7.79332 7.66476 7.51317 7.66476C7.26665 7.66476 7.02012 7.56391 6.75118 7.351L4.89102 5.53566C4.70052 5.33396 4.59967 5.07622 4.59967 4.77367ZM6.80721 19.655C6.80721 19.3636 6.91927 19.1059 7.14338 18.8818C7.34509 18.68 7.60282 18.5792 7.90538 18.5792H11.5136C11.6369 18.5792 11.7378 18.6016 11.8274 18.6688L14.4608 21.1565L17.1389 18.6576C17.2174 18.6016 17.3294 18.568 17.4639 18.568H21.1618C21.4644 18.568 21.7221 18.6688 21.935 18.8818C22.1479 19.0947 22.26 19.3524 22.26 19.6437C22.26 19.9463 22.1479 20.204 21.935 20.4169C21.7221 20.6299 21.4644 20.7419 21.1618 20.7419H18.1587L14.6401 23.9244C14.5056 24.0252 14.3823 24.0252 14.2703 23.9244L10.8189 20.7419H7.90538C7.60282 20.7419 7.34509 20.6299 7.13218 20.4169C6.91927 20.2152 6.80721 19.9575 6.80721 19.655ZM7.86055 13.5814C7.86055 14.6908 8.07346 15.6769 8.51049 16.5173C8.57772 16.6406 8.67858 16.6966 8.81305 16.6966H10.9085C10.9982 16.6966 11.0542 16.6742 11.0766 16.6182C11.099 16.5622 11.0654 16.4949 10.9982 16.4165C10.337 15.5873 10.0009 14.6348 10.0009 13.5814C10.0009 12.3488 10.4379 11.2954 11.3231 10.4326C12.2084 9.56974 13.273 9.13272 14.5168 9.13272C15.7494 9.13272 16.8028 9.56974 17.688 10.4326C18.5621 11.3066 19.0103 12.3488 19.0103 13.5702C19.0103 14.6236 18.6741 15.576 18.013 16.4053C17.9346 16.4837 17.9121 16.5509 17.9346 16.607C17.957 16.663 18.013 16.6854 18.1026 16.6854H20.2093C20.355 16.6854 20.4447 16.6294 20.4783 16.5061C20.9377 15.6321 21.173 14.646 21.173 13.5702C21.173 12.685 20.9937 11.8221 20.6464 11.0041C20.299 10.1861 19.8171 9.46889 19.2232 8.87499C18.6293 8.28108 17.9234 7.81043 17.1053 7.45185C16.2873 7.09326 15.4245 6.92518 14.528 6.92518C13.6315 6.92518 12.7687 7.10447 11.9507 7.45185C11.1326 7.81043 10.4267 8.28108 9.83277 8.87499C9.23887 9.46889 8.76822 10.1749 8.40964 11.0041C8.05105 11.8333 7.86055 12.6962 7.86055 13.5814ZM13.4186 3.70912V1.09817C13.4186 0.795611 13.5307 0.537878 13.7436 0.324968C13.9565 0.112058 14.2142 0 14.5168 0C14.8193 0 15.0771 0.112058 15.29 0.324968C15.5029 0.537878 15.615 0.795611 15.615 1.09817V3.69791C15.615 4.00047 15.5029 4.2582 15.29 4.47111C15.0771 4.68402 14.8193 4.79608 14.5168 4.79608C14.2142 4.79608 13.9565 4.68402 13.7436 4.47111C13.5195 4.2582 13.4186 4.01167 13.4186 3.70912ZM20.4447 6.60021C20.4447 6.28645 20.5455 6.02871 20.736 5.84942L22.5625 4.02288C22.7418 3.79876 22.9996 3.6867 23.3245 3.6867C23.6271 3.6867 23.8848 3.79876 24.0865 4.01167C24.2882 4.22458 24.3891 4.48232 24.3891 4.78487C24.3891 5.09863 24.2994 5.35637 24.1089 5.54687L22.2488 7.37341C21.9911 7.58632 21.7333 7.68717 21.4756 7.68717C21.1842 7.68717 20.9377 7.58632 20.736 7.37341C20.5455 7.1605 20.4447 6.90277 20.4447 6.60021ZM23.347 13.5814C23.347 13.2789 23.4478 13.0323 23.6383 12.8306C23.8288 12.6289 24.0865 12.5281 24.3891 12.5281H26.9888C27.2914 12.5281 27.5491 12.6289 27.762 12.8306C27.9749 13.0323 28.087 13.2789 28.087 13.5814C28.087 13.884 27.9749 14.1417 27.762 14.3658C27.5491 14.5899 27.2914 14.702 26.9888 14.702H24.3891C24.0977 14.702 23.8512 14.5899 23.6495 14.377C23.4478 14.1641 23.347 13.8952 23.347 13.5814Z" fill="white"/>
</g>
</svg>
