<svg width="37" height="24" viewBox="0 0 37 24" fill="none" xmlns="http://www.w3.org/2000/svg">
<g id="&#240;&#159;&#166;&#134; icon &#34;cloudy&#34;">
<path id="Vector" d="M0.182617 16.9898C0.182617 15.3568 0.693953 13.8888 1.71662 12.6187C3.52543 10.3722 5.81283 8.09942 7.85121 6.05904C8.07776 5.83226 8.32014 5.61599 8.57841 5.41049C10.1124 4.17338 11.8773 3.56308 13.8897 3.56308C15.8361 3.56308 17.5845 4.15689 19.102 5.361C20.5172 6.47183 21.4691 7.86342 21.9578 9.54872C22.0304 9.79942 22.2554 9.97952 22.5164 9.97952C24.4628 9.97952 26.1123 10.6558 27.4813 12.0249C28.8504 13.3939 29.5432 15.0434 29.5432 16.9733C29.5432 18.9196 28.8504 20.5691 27.4813 21.9382C26.1123 23.3072 24.4628 24 22.5164 24H7.22585C6.26916 24 5.36195 23.8186 4.50423 23.4392C3.6465 23.0598 2.87125 22.598 2.24445 21.9712C1.61765 21.3444 1.12281 20.5856 0.743436 19.7279C0.364059 18.8702 0.182617 17.93 0.182617 16.9898ZM2.57435 16.9898C2.57435 18.2434 3.0362 19.332 3.92691 20.2227C4.81762 21.1134 5.92277 21.5753 7.20935 21.5753H22.5164C23.7865 21.5753 24.8917 21.1299 25.7989 20.2227C26.7061 19.3155 27.1679 18.2434 27.1679 16.9898C27.1679 15.7362 26.7226 14.6475 25.7989 13.7568C24.8917 12.8661 23.803 12.4042 22.5164 12.4042H20.2237C19.9563 12.4042 19.9573 12.024 19.9194 11.7593L19.8608 11.3486C19.6958 9.79807 19.036 8.49499 17.8979 7.47232C16.7598 6.44965 15.4072 5.93832 13.8567 5.93832C12.3062 5.93832 10.9536 6.44965 9.79902 7.48882C8.64439 8.51149 8.0011 9.81457 7.85265 11.3486L7.77257 11.829C7.74902 11.9703 7.77587 12.1359 7.66877 12.2311C7.56869 12.3199 7.40684 12.2991 7.27458 12.3197L6.73101 12.4042C5.54339 12.5032 4.55371 12.998 3.74547 13.8723C2.98671 14.7465 2.57435 15.7856 2.57435 16.9898ZM17.1721 2.60639C17.0072 2.75484 17.0402 2.8703 17.2876 2.95278C17.9151 3.23002 18.4521 3.49436 18.8989 3.75721C19.0125 3.82408 19.1729 3.90313 19.3034 3.88425C19.4292 3.86605 19.4785 3.76564 19.574 3.6817C20.5464 2.82663 21.6552 2.39196 22.9288 2.39196C24.2649 2.39196 25.403 2.83732 26.3927 3.72803C27.3659 4.61874 27.9102 5.72389 28.0257 7.02697C28.1108 7.63237 28.6288 8.08263 29.2401 8.08263H30.5163C31.5885 8.08263 32.5122 8.462 33.2875 9.23725C34.0627 10.0125 34.4421 10.9197 34.4421 11.9754C34.4421 12.9651 34.0957 13.8228 33.4194 14.565C32.7431 15.3073 31.9019 15.7197 30.8957 15.8351C30.7308 15.8351 30.6483 15.9176 30.6483 16.099V17.9629C30.6483 18.1444 30.7308 18.2269 30.8957 18.2269C32.5617 18.1279 33.9637 17.4681 35.1019 16.264C36.24 15.0599 36.8173 13.6248 36.8173 11.9754C36.8173 10.2269 36.207 8.74241 34.9699 7.52181C33.7328 6.2847 32.2483 5.6744 30.5163 5.6744C30.3706 5.6744 30.244 5.57565 30.203 5.43583C29.7507 3.89403 28.8655 2.62022 27.5473 1.60021C26.1782 0.52806 24.6277 0.000229106 22.9288 0.000229106C20.6195 -0.0162656 18.6897 0.857953 17.1721 2.60639Z" fill="white"/>
</g>
</svg>
