<svg width="45" height="24" viewBox="0 0 45 24" fill="none" xmlns="http://www.w3.org/2000/svg">
<g id="&#240;&#159;&#166;&#134; icon &#34;strong wind&#34;">
<path id="Vector" d="M0.0999756 15.0965C0.0999756 15.5482 0.269388 15.9435 0.627035 16.2635C0.928211 16.6212 1.32351 16.7906 1.81292 16.7906H29.4647C30.0106 16.7906 30.4623 16.9788 30.8388 17.3553C31.2153 17.7318 31.4035 18.2024 31.4035 18.7482C31.4035 19.2941 31.2153 19.7459 30.8388 20.1035C30.4623 20.4612 30.0106 20.6494 29.4459 20.6494C28.9 20.6494 28.4294 20.4612 28.0717 20.1035C27.7706 19.7647 27.3941 19.6141 26.9423 19.6141C26.4717 19.6141 26.0764 19.7835 25.7376 20.1035C25.3988 20.4235 25.2294 20.8188 25.2294 21.2518C25.2294 21.7224 25.3988 22.1176 25.7564 22.4376C26.8106 23.4729 28.0529 24 29.4459 24C30.9141 24 32.1753 23.4918 33.2294 22.4753C34.2835 21.4588 34.7917 20.2353 34.7917 18.7671C34.7917 17.2988 34.2647 16.0565 33.2106 15.0024C32.1564 13.9482 30.8953 13.4212 29.4459 13.4212H1.81292C1.34233 13.4212 0.947034 13.5906 0.608211 13.9106C0.269387 14.2306 0.0999756 14.6259 0.0999756 15.0965ZM0.0999756 8.92235C0.0999756 9.35529 0.269388 9.73176 0.627035 10.0706C0.947035 10.4094 1.34233 10.56 1.81292 10.56H39.5353C41.0035 10.56 42.2647 10.0518 43.3188 9.01647C44.3729 8 44.9 6.75765 44.9 5.30824C44.9 3.85882 44.3729 2.59765 43.3188 1.56235C42.2647 0.527059 41.0035 0 39.5353 0C38.0858 0 36.8623 0.508236 35.8647 1.50588C35.5259 1.80706 35.3564 2.22118 35.3564 2.76706C35.3564 3.25647 35.5259 3.65177 35.8459 3.95294C36.1659 4.25412 36.5611 4.40471 37.0317 4.40471C37.4835 4.40471 37.8788 4.25412 38.2176 3.95294C38.5753 3.55765 39.0082 3.36941 39.5353 3.36941C40.0811 3.36941 40.5329 3.55765 40.9094 3.93412C41.2859 4.31059 41.4741 4.76235 41.4741 5.30824C41.4741 5.85412 41.2859 6.30588 40.9094 6.66353C40.5329 7.02118 40.0811 7.20941 39.5353 7.20941H1.81292C1.34233 7.20941 0.947034 7.37882 0.608211 7.69882C0.269387 8.05647 0.0999756 8.45176 0.0999756 8.92235Z" fill="white"/>
</g>
</svg>
