<svg width="33" height="24" viewBox="0 0 33 24" fill="none" xmlns="http://www.w3.org/2000/svg">
<g id="&#240;&#159;&#166;&#134; icon &#34;sunrise&#34;">
<path id="Vector" d="M0.828369 15.6716C0.828369 15.3518 0.956301 15.0576 1.21216 14.7889C1.49361 14.5458 1.80065 14.4179 2.10769 14.4179H5.0885C5.43391 14.4179 5.71536 14.5458 5.94564 14.7889C6.17592 15.032 6.29106 15.339 6.29106 15.6716C6.29106 16.0426 6.17592 16.3497 5.94564 16.5928C5.71536 16.8358 5.42112 16.9638 5.0885 16.9638H2.10769C1.76227 16.9638 1.46803 16.8358 1.21216 16.58C0.956301 16.3113 0.828369 16.0043 0.828369 15.6716ZM5.0885 5.46269C5.0885 5.11727 5.20364 4.82303 5.42112 4.59275C5.71536 4.33689 6.00961 4.20896 6.32944 4.20896C6.66206 4.20896 6.9563 4.33689 7.19937 4.57996L9.29745 6.69083C9.54052 6.97228 9.65566 7.26652 9.65566 7.57356C9.65566 7.93177 9.54052 8.23881 9.31025 8.46908C9.07997 8.69936 8.79852 8.82729 8.4659 8.82729C8.15886 8.82729 7.85182 8.69936 7.57037 8.45629L5.42112 6.39659C5.20364 6.12793 5.0885 5.8081 5.0885 5.46269ZM7.64713 22.7335C7.64713 22.3753 7.77506 22.081 8.01813 21.8635C8.24841 21.6461 8.52986 21.5309 8.88807 21.5309H12.2527L16.2314 17.7953C16.3593 17.693 16.5 17.693 16.6663 17.7953L20.709 21.5309H24.2527C24.5981 21.5309 24.8923 21.6461 25.1354 21.8891C25.3785 22.1194 25.5064 22.4136 25.5064 22.7463C25.5064 23.0917 25.3785 23.3859 25.1354 23.629C24.8923 23.8721 24.5981 24 24.2527 24H19.9286C19.8007 24 19.6727 23.9744 19.5576 23.9104L16.4744 21.0064L13.4169 23.9104C13.3145 23.9744 13.1994 24 13.0586 24H8.88807C8.54266 24 8.24841 23.8721 8.00534 23.629C7.76227 23.3731 7.64713 23.0789 7.64713 22.7335ZM8.8241 15.6716C8.8241 16.9126 9.09276 18.0384 9.61728 19.049C9.64287 19.2026 9.75801 19.2793 9.93711 19.2793H12.3422C12.4318 19.2793 12.4957 19.2409 12.5341 19.177C12.5725 19.1002 12.5597 19.0235 12.5085 18.9339C11.6898 17.9488 11.2804 16.8614 11.2804 15.6716C11.2804 14.2388 11.7921 13.0107 12.8156 12C13.839 10.9893 15.0672 10.4904 16.5128 10.4904C17.9456 10.4904 19.161 10.9893 20.1717 12C21.1823 13.0107 21.694 14.226 21.694 15.6716C21.694 16.8742 21.2847 17.9616 20.4787 18.9339C20.4275 19.0235 20.4147 19.1002 20.4403 19.177C20.4659 19.2537 20.5299 19.2793 20.6322 19.2793H23.0629C23.2292 19.2793 23.3316 19.2026 23.3572 19.049C23.9201 18.064 24.1759 16.9382 24.1759 15.6716C24.1759 14.6354 23.9712 13.6375 23.5618 12.7036C23.1525 11.7569 22.6024 10.951 21.9243 10.2601C21.2463 9.58209 20.4275 9.03198 19.4808 8.6226C18.5341 8.21322 17.5491 8.02132 16.5128 8.02132C15.4766 8.02132 14.4787 8.22601 13.532 8.6226C12.5853 9.03198 11.7665 9.5693 11.0757 10.2601C10.3849 10.9382 9.83477 11.7569 9.42538 12.7036C9.0288 13.6375 8.8241 14.6226 8.8241 15.6716ZM15.2591 4.20896V1.26652C15.2591 0.895522 15.3742 0.60128 15.6173 0.358209C15.8604 0.115139 16.1674 0 16.5256 0C16.8838 0 17.1781 0.115139 17.4211 0.358209C17.6642 0.60128 17.7793 0.921109 17.7793 1.27932V4.22175C17.7793 4.59275 17.6642 4.88699 17.4211 5.13006C17.1908 5.36034 16.8838 5.48827 16.5256 5.48827C16.1546 5.48827 15.8604 5.37313 15.6173 5.13006C15.3742 4.88699 15.2591 4.57996 15.2591 4.20896ZM23.3827 7.58635C23.3827 7.26653 23.4979 6.97228 23.7282 6.70363L25.8007 4.59275C26.0437 4.34968 26.3508 4.22175 26.6962 4.22175C27.0416 4.22175 27.3486 4.34968 27.5789 4.59275C27.822 4.83582 27.9371 5.13006 27.9371 5.47548C27.9371 5.84648 27.822 6.15352 27.6045 6.40938L25.4552 8.46908C25.1866 8.71215 24.8795 8.84009 24.5597 8.84009C24.2143 8.84009 23.9328 8.72495 23.7154 8.48188C23.4979 8.23881 23.3827 7.94456 23.3827 7.58635ZM26.7218 15.6716C26.7218 15.3262 26.8369 15.032 27.0672 14.7889C27.2975 14.5458 27.5789 14.4179 27.9115 14.4179H30.9179C31.2633 14.4179 31.5576 14.5458 31.8006 14.7889C32.0437 15.032 32.1717 15.339 32.1717 15.6716C32.1717 16.0299 32.0437 16.3241 31.8006 16.58C31.5576 16.8358 31.2633 16.9638 30.9179 16.9638H27.9115C27.5661 16.9638 27.2847 16.8358 27.0544 16.5928C26.8369 16.3369 26.7218 16.0299 26.7218 15.6716Z" fill="white"/>
</g>
</svg>
