<svg width="19" height="24" viewBox="0 0 19 24" fill="none" xmlns="http://www.w3.org/2000/svg">
<g id="&#240;&#159;&#166;&#134; icon &#34;humidity&#34;">
<path id="Vector" d="M0.203613 14.7162C0.203613 13.6121 0.504711 12.345 1.10691 10.9148C1.7091 9.48458 2.48694 8.092 3.44041 6.76215C5.39755 4.17773 7.10377 2.2206 8.53398 0.903293L8.55523 0.882897C9.06327 0.395172 9.86744 0.416653 10.4305 0.839678C10.4865 0.881776 10.5406 0.928214 10.5894 0.978597C11.1043 1.51108 11.8697 2.35275 12.8748 3.52535C13.9286 4.75484 14.8445 5.84631 15.5972 6.84997C16.488 8.11709 17.2533 9.48458 17.868 10.9273C18.4827 12.3701 18.7964 13.6372 18.7964 14.7287C18.7964 15.9833 18.558 17.1751 18.0687 18.3168C17.5795 19.4584 16.9271 20.4496 16.0991 21.2776C15.271 22.1056 14.2799 22.7705 13.1257 23.2598C11.9715 23.7491 10.7546 24 9.47491 24C8.22034 24 7.02849 23.7616 5.88683 23.2849C4.74517 22.8082 3.75406 22.1683 2.92604 21.3403C2.09802 20.5248 1.43309 19.5337 0.943811 18.3921C0.454528 17.2504 0.203613 16.0209 0.203613 14.7162ZM3.03895 11.0403C3.03895 12.0815 3.25223 12.9096 3.69133 13.5369C4.13043 14.1516 4.79535 14.4652 5.6861 14.4652C6.58939 14.4652 7.25432 14.1516 7.70596 13.5369C8.14506 12.9221 8.37089 12.0941 8.38343 11.0403C8.37089 9.98641 8.14506 9.15839 7.70596 8.5311C7.26686 7.91636 6.58939 7.60272 5.6861 7.60272C4.79535 7.60272 4.13043 7.91636 3.69133 8.5311C3.25223 9.15839 3.03895 9.98641 3.03895 11.0403ZM5.00863 11.0403C5.00863 10.8521 5.00863 10.7015 5.00863 10.6011C5.00863 10.5008 5.02118 10.3628 5.03372 10.1871C5.04627 10.0115 5.05881 9.8735 5.09645 9.78568C5.13409 9.69786 5.15918 9.58495 5.20936 9.48458C5.25954 9.38421 5.32227 9.29639 5.39755 9.25876C5.48537 9.20857 5.57319 9.18348 5.6861 9.18348C5.86174 9.18348 5.99974 9.23366 6.10011 9.33403C6.20047 9.4344 6.27575 9.59749 6.31339 9.81077C6.35102 10.0366 6.37611 10.2122 6.38866 10.3753C6.40121 10.5384 6.40121 10.7517 6.40121 11.0277C6.40121 11.3163 6.40121 11.5295 6.38866 11.6801C6.37611 11.8306 6.35102 12.0188 6.31339 12.2446C6.27575 12.4579 6.20047 12.621 6.10011 12.7214C5.99974 12.8217 5.86174 12.8719 5.6861 12.8719C5.57319 12.8719 5.48537 12.8468 5.39755 12.7967C5.30973 12.7465 5.247 12.6712 5.20936 12.5708C5.15918 12.4705 5.12154 12.3576 5.09645 12.2697C5.07136 12.1694 5.04627 12.0314 5.03372 11.8683C5.02118 11.6926 5.00863 11.5546 5.00863 11.4668C5.00863 11.379 5.00863 11.2284 5.00863 11.0403ZM6.24191 19.6955C6.0117 20.194 6.37579 20.7632 6.92488 20.7632C7.21761 20.7632 7.48377 20.5934 7.60711 20.3279L13.1584 8.37986C13.3947 7.87118 13.0233 7.28907 12.4624 7.28907C12.1631 7.28907 11.8912 7.46305 11.7657 7.73474L6.24191 19.6955ZM11.1435 17.012C11.156 18.0659 11.3944 18.8939 11.8335 19.5212C12.2726 20.1359 12.9501 20.4496 13.8408 20.4496C14.7441 20.4496 15.409 20.1359 15.8481 19.5212C16.2872 18.9064 16.5005 18.0659 16.5131 17.012C16.5005 15.9582 16.2872 15.1302 15.8481 14.5154C15.409 13.9007 14.7441 13.587 13.8408 13.587C12.9501 13.587 12.2726 13.9007 11.8335 14.5154C11.3819 15.1302 11.156 15.9582 11.1435 17.012ZM13.1132 17.012C13.1132 16.7235 13.1132 16.5102 13.1257 16.3596C13.1383 16.2091 13.1634 16.0209 13.201 15.7951C13.2386 15.5693 13.3139 15.4187 13.4143 15.3183C13.5146 15.218 13.6526 15.1678 13.8283 15.1678C13.9412 15.1678 14.0416 15.1929 14.1294 15.2431C14.2172 15.2933 14.2799 15.3685 14.3301 15.4814C14.3803 15.5944 14.4179 15.6947 14.4556 15.7825C14.4932 15.8704 14.5058 16.0084 14.5183 16.184L14.5308 16.5855V17.012V17.4511L14.5183 17.8526L14.4777 18.1125C14.463 18.2065 14.4371 18.2985 14.4004 18.3863L14.3687 18.4625C14.3431 18.5239 14.3083 18.581 14.2655 18.6319C14.177 18.737 14.0577 18.8114 13.9244 18.8448L13.9113 18.848C13.8561 18.8618 13.7994 18.8704 13.7429 18.8645C13.6073 18.8505 13.4978 18.8017 13.4143 18.7182C13.3139 18.6179 13.2386 18.4548 13.201 18.2415C13.1634 18.0157 13.1383 17.8275 13.1257 17.6769C13.1132 17.5264 13.1132 17.3006 13.1132 17.012Z" fill="white"/>
</g>
</svg>
