<svg width="25" height="24" viewBox="0 0 25 24" fill="none" xmlns="http://www.w3.org/2000/svg">
<g id="material-symbols:visibility-outline">
<path id="Vector" d="M12.5 16C13.75 16 14.8127 15.5627 15.688 14.688C16.5633 13.8133 17.0007 12.7507 17 11.5C17 10.25 16.5627 9.18767 15.688 8.313C14.8133 7.43833 13.7507 7.00067 12.5 7C11.25 7 10.1877 7.43767 9.313 8.313C8.43833 9.18833 8.00067 10.2507 8 11.5C8 12.75 8.43767 13.8127 9.313 14.688C10.1883 15.5633 11.2507 16.0007 12.5 16ZM12.5 14.2C11.75 14.2 11.1127 13.9373 10.588 13.412C10.0633 12.8867 9.80067 12.2493 9.8 11.5C9.8 10.75 10.0627 10.1127 10.588 9.588C11.1133 9.06333 11.7507 8.80067 12.5 8.8C13.25 8.8 13.8877 9.06267 14.413 9.588C14.9383 10.1133 15.2007 10.7507 15.2 11.5C15.2 12.25 14.9377 12.8877 14.413 13.413C13.8883 13.9383 13.2507 14.2007 12.5 14.2ZM12.5 19C10.0667 19 7.85 18.321 5.85 16.963C3.85 15.605 2.4 13.784 1.5 11.5C2.4 9.21667 3.85 7.396 5.85 6.038C7.85 4.68 10.0667 4.00067 12.5 4C14.9333 4 17.15 4.67933 19.15 6.038C21.15 7.39667 22.6 9.21733 23.5 11.5C22.6 13.7833 21.15 15.6043 19.15 16.963C17.15 18.3217 14.9333 19.0007 12.5 19ZM12.5 17C14.3833 17 16.1127 16.5043 17.688 15.513C19.2633 14.5217 20.4673 13.184 21.3 11.5C20.4667 9.81667 19.2623 8.47933 17.687 7.488C16.1117 6.49667 14.3827 6.00067 12.5 6C10.6167 6 8.88767 6.496 7.313 7.488C5.73833 8.48 4.534 9.81733 3.7 11.5C4.53333 13.1833 5.73767 14.521 7.313 15.513C8.88833 16.505 10.6173 17.0007 12.5 17Z" fill="white"/>
</g>
</svg>
