<svg width="11" height="10" viewBox="0 0 11 10" fill="none" xmlns="http://www.w3.org/2000/svg">
<g id="material-symbols:info-outline">
<path id="Vector" d="M4.92493 7.08337H5.75826V4.58337H4.92493V7.08337ZM5.34159 3.75004C5.45965 3.75004 5.55868 3.71004 5.63868 3.63004C5.71868 3.55004 5.75854 3.45115 5.75826 3.33337C5.75826 3.21532 5.71826 3.11643 5.63826 3.03671C5.55826 2.95698 5.45937 2.91698 5.34159 2.91671C5.22354 2.91671 5.12465 2.95671 5.04493 3.03671C4.9652 3.11671 4.9252 3.2156 4.92493 3.33337C4.92493 3.45143 4.96493 3.55046 5.04493 3.63046C5.12493 3.71046 5.22381 3.75032 5.34159 3.75004ZM5.34159 9.16671C4.7652 9.16671 4.22354 9.05726 3.71659 8.83837C3.20965 8.61948 2.76868 8.32268 2.39368 7.94796C2.01868 7.57296 1.72187 7.13198 1.50326 6.62504C1.28465 6.1181 1.1752 5.57643 1.17493 5.00004C1.17493 4.42365 1.28437 3.88198 1.50326 3.37504C1.72215 2.8681 2.01895 2.42712 2.39368 2.05212C2.76868 1.67712 3.20965 1.38032 3.71659 1.16171C4.22354 0.943096 4.7652 0.833652 5.34159 0.833374C5.91798 0.833374 6.45965 0.942818 6.96659 1.16171C7.47354 1.3806 7.91451 1.6774 8.28951 2.05212C8.66451 2.42712 8.96145 2.8681 9.18034 3.37504C9.39923 3.88198 9.50854 4.42365 9.50826 5.00004C9.50826 5.57643 9.39881 6.1181 9.17992 6.62504C8.96104 7.13198 8.66423 7.57296 8.28951 7.94796C7.91451 8.32296 7.47354 8.6199 6.96659 8.83879C6.45965 9.05768 5.91798 9.16698 5.34159 9.16671ZM5.34159 8.33337C6.27215 8.33337 7.06034 8.01046 7.70618 7.36462C8.35201 6.71879 8.67493 5.9306 8.67493 5.00004C8.67493 4.06948 8.35201 3.28129 7.70618 2.63546C7.06034 1.98962 6.27215 1.66671 5.34159 1.66671C4.41104 1.66671 3.62284 1.98962 2.97701 2.63546C2.33118 3.28129 2.00826 4.06948 2.00826 5.00004C2.00826 5.9306 2.33118 6.71879 2.97701 7.36462C3.62284 8.01046 4.41104 8.33337 5.34159 8.33337Z" fill="white"/>
</g>
</svg>
