<svg width="25" height="24" viewBox="0 0 25 24" fill="none" xmlns="http://www.w3.org/2000/svg">
<path d="M0.899658 12.232C0.899658 10.664 1.20366 9.15998 1.82766 7.71998C2.43566 6.27998 3.26766 5.04799 4.30766 4.00798C5.34766 2.96798 6.59566 2.13598 8.01966 1.51198C9.44366 0.887984 10.9637 0.583984 12.5477 0.583984H14.4197C14.6757 0.647984 14.8037 0.807985 14.8037 1.03198L14.8677 2.47198C14.9317 4.55198 15.6837 6.32798 17.1237 7.79998C18.5637 9.27199 20.3237 10.056 22.3717 10.136L23.7317 10.248C23.9877 10.248 24.0997 10.376 24.0997 10.616V12.232C24.1157 13.88 23.7957 15.432 23.1717 16.904H19.8917C20.7077 15.72 21.2197 14.36 21.4437 12.856C18.7717 12.296 16.6117 11.144 14.9957 9.39999C13.3797 7.65598 12.4517 5.60799 12.1957 3.27198C10.6437 3.35198 9.23566 3.83198 7.93966 4.71198C6.65966 5.59198 5.65166 6.69598 4.94766 8.03998C4.24366 9.38398 3.89166 10.792 3.89166 12.248C3.89166 13.96 4.33966 15.512 5.21966 16.92H1.85966C1.21966 15.416 0.899658 13.864 0.899658 12.232ZM1.36366 21.848C1.36366 21.384 1.50766 21.016 1.81166 20.76C2.09966 20.472 2.46766 20.344 2.91566 20.344H7.12366L12.0997 15.656C12.2597 15.528 12.4517 15.528 12.6597 15.656L17.7157 20.328H22.1477C22.5797 20.328 22.9477 20.472 23.2517 20.776C23.3996 20.9123 23.5173 21.0782 23.5972 21.2628C23.6772 21.4475 23.7175 21.6468 23.7157 21.848C23.7157 22.28 23.5557 22.648 23.2517 22.952C22.9477 23.256 22.5797 23.416 22.1477 23.416H16.7397C16.5797 23.416 16.4197 23.384 16.2757 23.304L12.4197 19.672L8.59566 23.304C8.46766 23.384 8.32366 23.416 8.14766 23.416H2.91566C2.48366 23.416 2.11566 23.256 1.81166 22.952C1.50766 22.648 1.36366 22.28 1.36366 21.848Z" fill="white"/>
</svg>
