<svg width="21" height="24" viewBox="0 0 21 24" fill="none" xmlns="http://www.w3.org/2000/svg">
<path d="M0.369141 10.1655C0.369141 8.79709 0.63445 7.48451 1.17903 6.22778C1.70965 4.97105 2.43576 3.89585 3.3434 2.98822C4.25103 2.08058 5.34019 1.35447 6.58296 0.809891C7.83969 0.265309 9.15227 0 10.5347 0H12.1684C12.3918 0.0558545 12.5035 0.195491 12.5035 0.390982L12.5734 1.64771C12.6013 2.54138 12.7828 3.39316 13.1319 4.20305C13.481 5.01295 13.9418 5.71113 14.5283 6.2976C15.1147 6.89804 15.799 7.3728 16.5949 7.73585C17.3908 8.09891 18.2286 8.2944 19.1083 8.33629L20.2952 8.43404C20.5187 8.43404 20.6304 8.54575 20.6304 8.7552V10.1655C20.6443 11.5759 20.3651 12.9303 19.8065 14.2429H16.944C17.6561 13.2096 18.103 12.0227 18.2985 10.7101C15.9526 10.2214 14.0814 9.216 12.6711 7.69396C11.2608 6.17193 10.4509 4.38458 10.2275 2.34589C8.873 2.41571 7.6442 2.83462 6.51314 3.60262C5.39605 4.37062 4.5303 5.33411 3.90194 6.50705C3.28754 7.68 2.98034 8.9088 2.98034 10.1795C2.98034 11.6736 3.37132 13.0281 4.13932 14.2569H1.20696C0.648414 12.9443 0.369141 11.5898 0.369141 10.1655ZM0.718232 18.5856C0.718232 18.2225 0.857868 17.9014 1.13714 17.6221C1.38849 17.3708 1.70965 17.2451 2.08667 17.2451H6.58296C6.73656 17.2451 6.86223 17.273 6.97394 17.3568L10.2554 20.4567L13.5927 17.3428C13.6904 17.273 13.8301 17.2311 13.9977 17.2311H18.6056C18.9827 17.2311 19.3038 17.3568 19.5691 17.6221C19.8344 17.8874 19.9741 18.2086 19.9741 18.5716C19.9741 18.9487 19.8344 19.2698 19.5691 19.5351C19.3038 19.8004 18.9827 19.9401 18.6056 19.9401H14.8634L10.4928 23.9057C10.3252 24.0314 10.1576 24.0314 10.018 23.9057L5.71721 19.9401H2.08667C1.70965 19.9401 1.38849 19.8004 1.12318 19.5351C0.992722 19.4142 0.88923 19.2672 0.819454 19.1035C0.749678 18.9399 0.715186 18.7634 0.718232 18.5856Z" fill="white"/>
</svg>
