<svg width="33" height="24" viewBox="0 0 33 24" fill="none" xmlns="http://www.w3.org/2000/svg">
<path d="M23.5739 14.7273C23.8693 14.7273 24.1193 14.8352 24.3239 15.0511C24.5284 15.267 24.6364 15.5227 24.6477 15.8182C24.6477 16.2273 24.4659 16.5398 24.1023 16.7557L22.9091 17.4545L24.1023 18.1534C24.4659 18.3693 24.6477 18.6818 24.6477 19.0909C24.6477 19.3977 24.5398 19.6534 24.3239 19.858C24.108 20.0625 23.8523 20.1705 23.5568 20.1818C23.4091 20.1818 23.2614 20.1534 23.1136 20.0966C22.9659 20.0398 22.8125 19.9659 22.6534 19.875C22.4943 19.7841 22.3466 19.6932 22.2102 19.6023C22.0739 19.5114 21.9432 19.4261 21.8182 19.3466C21.8182 19.5625 21.8239 19.8125 21.8352 20.0966C21.8466 20.3807 21.8295 20.6477 21.7841 20.8977C21.7386 21.1477 21.6364 21.3636 21.4773 21.5455C21.3182 21.7273 21.0682 21.8182 20.7273 21.8182C20.3864 21.8182 20.1364 21.733 19.9773 21.5625C19.8182 21.392 19.7159 21.1761 19.6705 20.9148C19.625 20.6534 19.6023 20.3807 19.6023 20.0966C19.6023 19.8125 19.6136 19.5625 19.6364 19.3466C19.5114 19.4148 19.3807 19.4943 19.2443 19.5852C19.108 19.6761 18.9659 19.767 18.8182 19.858C18.6705 19.9489 18.517 20.0227 18.358 20.0795C18.1989 20.1364 18.0455 20.1705 17.8977 20.1818C17.6023 20.1818 17.3466 20.0795 17.1307 19.875C16.9148 19.6705 16.8068 19.4091 16.8068 19.0909C16.8068 18.6818 16.9886 18.3693 17.3523 18.1534L18.5455 17.4545L17.3523 16.7557C16.9886 16.5398 16.8068 16.2273 16.8068 15.8182C16.8068 15.5227 16.9091 15.267 17.1136 15.0511C17.3182 14.8352 17.5739 14.7273 17.8807 14.7273C18.0284 14.7273 18.1818 14.7557 18.3409 14.8125C18.5 14.8693 18.6534 14.9489 18.8011 15.0511C18.9489 15.1534 19.0966 15.2443 19.2443 15.3239C19.392 15.4034 19.5227 15.483 19.6364 15.5625C19.6364 15.3466 19.6307 15.0966 19.6193 14.8125C19.608 14.5284 19.6193 14.2614 19.6534 14.0114C19.6875 13.7614 19.7955 13.5455 19.9773 13.3636C20.1591 13.1818 20.4091 13.0909 20.7273 13.0909C21.0682 13.0909 21.3125 13.1761 21.4602 13.3466C21.608 13.517 21.7102 13.733 21.767 13.9943C21.8239 14.2557 21.8466 14.5284 21.8352 14.8125C21.8239 15.0966 21.8182 15.3466 21.8182 15.5625C21.9318 15.4943 22.0568 15.4148 22.1932 15.3239C22.3295 15.233 22.4773 15.142 22.6364 15.0511C22.7955 14.9602 22.9545 14.8864 23.1136 14.8295C23.2727 14.7727 23.4261 14.7386 23.5739 14.7273ZM14.4886 20.233C14.6477 20.5739 14.7273 20.9205 14.7273 21.2727C14.7273 21.6477 14.6591 22 14.5227 22.3295C14.3864 22.6591 14.1875 22.9489 13.9261 23.1989C13.6648 23.4489 13.375 23.642 13.0568 23.7784C12.7386 23.9148 12.3864 23.9886 12 24C11.625 24 11.2727 23.9318 10.9432 23.7955C10.6136 23.6591 10.3239 23.4602 10.0739 23.1989C9.82386 22.9375 9.63068 22.6477 9.49432 22.3295C9.35795 22.0114 9.28409 21.6591 9.27273 21.2727C9.27273 20.9205 9.35227 20.5739 9.51136 20.233L12 15.2727L14.4886 20.233ZM27.8352 6.75C28.5511 6.94318 29.2045 7.23864 29.7955 7.63636C30.3864 8.03409 30.9034 8.51705 31.3466 9.08523C31.7898 9.65341 32.1307 10.2727 32.3693 10.9432C32.608 11.6136 32.7273 12.3295 32.7273 13.0909C32.7273 13.7841 32.625 14.4489 32.4205 15.0852C32.2159 15.7216 31.9205 16.3125 31.5341 16.858C31.1477 17.4034 30.6875 17.875 30.1534 18.2727C29.6193 18.6705 29.0227 18.9886 28.3636 19.2273V16.858C29.0341 16.4602 29.5625 15.9318 29.9489 15.2727C30.3352 14.6136 30.5341 13.8864 30.5455 13.0909C30.5455 12.4659 30.4318 11.892 30.2045 11.3693C29.9773 10.8466 29.6534 10.3864 29.233 9.98864C28.8125 9.59091 28.3409 9.28409 27.8182 9.06818C27.2955 8.85227 26.7159 8.73864 26.0795 8.72727C25.9432 7.79545 25.6534 6.93182 25.2102 6.13636C24.767 5.34091 24.2102 4.64773 23.5398 4.05682C22.8693 3.46591 22.108 3.00568 21.2557 2.67614C20.4034 2.34659 19.5 2.18182 18.5455 2.18182C17.6705 2.18182 16.8409 2.32386 16.0568 2.60795C15.2727 2.89205 14.5511 3.28409 13.892 3.78409C13.233 4.28409 12.6761 4.88636 12.2216 5.59091C11.767 6.29545 11.4205 7.0625 11.1818 7.89205C10.6818 7.46023 10.1307 7.13068 9.52841 6.90341C8.92614 6.67614 8.29545 6.55682 7.63636 6.54545C6.88636 6.54545 6.18182 6.6875 5.52273 6.97159C4.86364 7.25568 4.28409 7.64205 3.78409 8.13068C3.28409 8.61932 2.89205 9.19886 2.60795 9.86932C2.32386 10.5398 2.18182 11.25 2.18182 12C2.18182 12.75 2.32386 13.4545 2.60795 14.1136C2.89205 14.7727 3.27841 15.3523 3.76705 15.8523C4.25568 16.3523 4.83523 16.7443 5.50568 17.0284C6.17614 17.3125 6.88636 17.4545 7.63636 17.4545L6.59659 19.5341C5.65341 19.4091 4.77841 19.125 3.97159 18.6818C3.16477 18.2386 2.47159 17.6818 1.89205 17.0114C1.3125 16.3409 0.852273 15.5739 0.511364 14.7102C0.170455 13.8466 0 12.9432 0 12C0 10.9432 0.198864 9.95455 0.596591 9.03409C0.994318 8.11364 1.53977 7.30682 2.23295 6.61364C2.92614 5.92045 3.73295 5.375 4.65341 4.97727C5.57386 4.57955 6.56818 4.375 7.63636 4.36364C8.47727 4.36364 9.3125 4.50568 10.142 4.78977C10.5852 4.05114 11.108 3.38636 11.7102 2.79545C12.3125 2.20455 12.9773 1.70455 13.7045 1.29545C14.4318 0.886364 15.2045 0.568182 16.0227 0.340909C16.8409 0.113636 17.6818 0 18.5455 0C19.6023 0 20.6136 0.164773 21.5795 0.494318C22.5455 0.823864 23.4432 1.28409 24.2727 1.875C25.1023 2.46591 25.8182 3.17614 26.4205 4.00568C27.0227 4.83523 27.4943 5.75 27.8352 6.75Z" fill="white"/>
</svg>
