<svg width="27" height="28" viewBox="0 0 27 28" fill="none" xmlns="http://www.w3.org/2000/svg">
<path id="Vector" d="M1.5 14H2.83333M24.1667 14H25.5M4.96667 5.46667L5.9 6.4M22.0333 5.46667L21.1 6.4M8.16667 14C8.16667 12.5855 8.72857 11.229 9.72876 10.2288C10.729 9.22857 12.0855 8.66667 13.5 8.66667C14.9145 8.66667 16.271 9.22857 17.2712 10.2288C18.2714 11.229 18.8333 12.5855 18.8333 14M13.5 3.33333V2M14.8333 19.3333L17.5 26H18.8333L21.5 19.3333M5.5 19.3333V23.3333C5.5 24.0406 5.78095 24.7189 6.28105 25.219C6.78115 25.719 7.45942 26 8.16667 26C8.87391 26 9.55219 25.719 10.0523 25.219C10.5524 24.7189 10.8333 24.0406 10.8333 23.3333V19.3333" stroke="white" stroke-width="3" stroke-linecap="round" stroke-linejoin="round"/>
</svg>
