<svg width="31" height="24" viewBox="0 0 31 24" fill="none" xmlns="http://www.w3.org/2000/svg">
<g id="&#240;&#159;&#166;&#134; icon &#34;sunrise&#34;">
<path id="Vector" d="M0 15.5C0 15.1837 0.126531 14.8927 0.379592 14.6269C0.657959 14.3865 0.961633 14.26 1.26531 14.26H4.21347C4.5551 14.26 4.83347 14.3865 5.06122 14.6269C5.28898 14.8673 5.40286 15.171 5.40286 15.5C5.40286 15.8669 5.28898 16.1706 5.06122 16.411C4.83347 16.6514 4.54245 16.778 4.21347 16.778H1.26531C0.923673 16.778 0.632653 16.6514 0.379592 16.3984C0.126531 16.1327 0 15.829 0 15.5ZM4.21347 5.40286C4.21347 5.06122 4.32735 4.7702 4.54245 4.54245C4.83347 4.28939 5.12449 4.16286 5.44082 4.16286C5.7698 4.16286 6.06082 4.28939 6.30122 4.5298L8.37633 6.61755C8.61673 6.89592 8.73061 7.18694 8.73061 7.49061C8.73061 7.8449 8.61673 8.14857 8.38898 8.37633C8.16122 8.60408 7.88286 8.73061 7.55388 8.73061C7.2502 8.73061 6.94653 8.60408 6.66816 8.36367L4.54245 6.32653C4.32735 6.06082 4.21347 5.74449 4.21347 5.40286ZM6.74408 22.4845C6.74408 22.1302 6.87061 21.8392 7.11102 21.6241C7.33878 21.409 7.61714 21.2951 7.97143 21.2951H11.2992L15.2343 17.6004C15.3608 17.4992 15.5 17.4992 15.6645 17.6004L19.6629 21.2951H23.1678C23.5094 21.2951 23.8004 21.409 24.0408 21.6494C24.2812 21.8771 24.4078 22.1682 24.4078 22.4971C24.4078 22.8388 24.2812 23.1298 24.0408 23.3702C23.8004 23.6106 23.5094 23.7371 23.1678 23.7371H18.891C18.7645 23.7371 18.638 23.7118 18.5241 23.6486L15.4747 20.7763L12.4506 23.6486C12.3494 23.7118 12.2355 23.7371 12.0963 23.7371H7.97143C7.6298 23.7371 7.33878 23.6106 7.09837 23.3702C6.85796 23.1171 6.74408 22.8261 6.74408 22.4845ZM7.90816 15.5C7.90816 16.7273 8.17388 17.8408 8.69265 18.8404C8.71796 18.9922 8.83184 19.0682 9.00898 19.0682H11.3878C11.4763 19.0682 11.5396 19.0302 11.5776 18.9669C11.6155 18.891 11.6029 18.8151 11.5522 18.7265C10.7424 17.7522 10.3376 16.6767 10.3376 15.5C10.3376 14.0829 10.8437 12.8682 11.8559 11.8686C12.8682 10.869 14.0829 10.3755 15.5127 10.3755C16.9298 10.3755 18.1318 10.869 19.1314 11.8686C20.131 12.8682 20.6371 14.0702 20.6371 15.5C20.6371 16.6894 20.2322 17.7649 19.4351 18.7265C19.3845 18.8151 19.3718 18.891 19.3971 18.9669C19.4224 19.0429 19.4857 19.0682 19.5869 19.0682H21.991C22.1555 19.0682 22.2567 18.9922 22.282 18.8404C22.8388 17.8661 23.0918 16.7527 23.0918 15.5C23.0918 14.4751 22.8894 13.4882 22.4845 12.5645C22.0796 11.6282 21.5355 10.831 20.8649 10.1478C20.1943 9.47714 19.3845 8.93306 18.4482 8.52816C17.5118 8.12327 16.5376 7.93347 15.5127 7.93347C14.4878 7.93347 13.5008 8.13592 12.5645 8.52816C11.6282 8.93306 10.8184 9.46449 10.1351 10.1478C9.45184 10.8184 8.90776 11.6282 8.50286 12.5645C8.11061 13.4882 7.90816 14.4624 7.90816 15.5ZM14.2727 4.16286V1.25265C14.2727 0.885714 14.3865 0.594694 14.6269 0.354286C14.8673 0.113878 15.171 0 15.5253 0C15.8796 0 16.1706 0.113878 16.411 0.354286C16.6514 0.594694 16.7653 0.911021 16.7653 1.26531V4.17551C16.7653 4.54245 16.6514 4.83347 16.411 5.07388C16.1833 5.30163 15.8796 5.42816 15.5253 5.42816C15.1584 5.42816 14.8673 5.31429 14.6269 5.07388C14.3865 4.83347 14.2727 4.5298 14.2727 4.16286ZM22.3073 7.50327C22.3073 7.18694 22.4212 6.89592 22.649 6.63021L24.6988 4.54245C24.9392 4.30204 25.2429 4.17551 25.5845 4.17551C25.9261 4.17551 26.2298 4.30204 26.4576 4.54245C26.698 4.78286 26.8118 5.07388 26.8118 5.41551C26.8118 5.78245 26.698 6.08612 26.4829 6.33918L24.3571 8.37633C24.0914 8.61673 23.7878 8.74327 23.4714 8.74327C23.1298 8.74327 22.8514 8.62939 22.6363 8.38898C22.4212 8.14857 22.3073 7.85755 22.3073 7.50327ZM25.6098 15.5C25.6098 15.1584 25.7237 14.8673 25.9514 14.6269C26.1792 14.3865 26.4576 14.26 26.7865 14.26H29.76C30.1016 14.26 30.3927 14.3865 30.6331 14.6269C30.8735 14.8673 31 15.171 31 15.5C31 15.8543 30.8735 16.1453 30.6331 16.3984C30.3927 16.6514 30.1016 16.778 29.76 16.778H26.7865C26.4449 16.778 26.1665 16.6514 25.9388 16.411C25.7237 16.158 25.6098 15.8543 25.6098 15.5Z" fill="black"/>
</g>
</svg>
