<svg width="31" height="28" viewBox="0 0 31 28" fill="none" xmlns="http://www.w3.org/2000/svg">
<g id="&#240;&#159;&#166;&#134; icon &#34;sunset&#34;">
<path id="Vector" d="M0 15.4936C0 15.1357 0.127835 14.8544 0.383505 14.6243C0.600825 14.3942 0.894845 14.292 1.25278 14.292H4.20577C4.55093 14.292 4.83216 14.407 5.06227 14.6371C5.27959 14.8672 5.39464 15.1485 5.39464 15.4936C5.39464 15.8515 5.27959 16.1583 5.04948 16.4012C4.81938 16.6441 4.53814 16.772 4.20577 16.772H1.26557C0.920412 16.772 0.626392 16.6441 0.383505 16.3885C0.127835 16.1328 0 15.8388 0 15.4936ZM4.20577 5.44577C4.20577 5.08784 4.30804 4.79381 4.52536 4.57649C4.78103 4.32082 5.07505 4.19299 5.42021 4.19299C5.79093 4.19299 6.07217 4.32082 6.28948 4.57649L8.36041 6.66021C8.94845 7.22268 8.94845 7.79794 8.36041 8.38598C8.11753 8.62887 7.84907 8.74392 7.52948 8.74392C7.24825 8.74392 6.96701 8.62887 6.66021 8.38598L4.53814 6.31505C4.32082 6.08495 4.20577 5.79093 4.20577 5.44577ZM6.72412 22.4223C6.72412 22.0899 6.85196 21.7959 7.10763 21.5402C7.33773 21.3101 7.63175 21.1951 7.97691 21.1951H12.0932C12.2338 21.1951 12.3489 21.2206 12.4511 21.2973L15.4553 24.1353L18.5105 21.2845C18.6 21.2206 18.7278 21.1823 18.8812 21.1823H23.0998C23.4449 21.1823 23.739 21.2973 23.9819 21.5402C24.2247 21.7831 24.3526 22.0771 24.3526 22.4095C24.3526 22.7546 24.2247 23.0487 23.9819 23.2915C23.739 23.5344 23.4449 23.6623 23.0998 23.6623H19.6738L15.6598 27.2928C15.5064 27.4078 15.3658 27.4078 15.2379 27.2928L11.3006 23.6623H7.97691C7.63175 23.6623 7.33773 23.5344 7.09485 23.2915C6.85196 23.0614 6.72412 22.7674 6.72412 22.4223ZM7.92577 15.4936C7.92577 16.7592 8.16866 17.8841 8.66722 18.8429C8.74392 18.9835 8.85897 19.0474 9.01237 19.0474H11.4029C11.5052 19.0474 11.5691 19.0219 11.5946 18.9579C11.6202 18.894 11.5819 18.8173 11.5052 18.7278C10.7509 17.7819 10.3674 16.6953 10.3674 15.4936C10.3674 14.0874 10.866 12.8858 11.8759 11.9014C12.8858 10.9171 14.1002 10.4186 15.5192 10.4186C16.9254 10.4186 18.127 10.9171 19.1369 11.9014C20.134 12.8986 20.6454 14.0874 20.6454 15.4808C20.6454 16.6825 20.2619 17.7691 19.5076 18.715C19.4181 18.8045 19.3926 18.8812 19.4181 18.9452C19.4437 19.0091 19.5076 19.0346 19.6099 19.0346H22.0132C22.1794 19.0346 22.2816 18.9707 22.32 18.8301C22.8441 17.833 23.1126 16.708 23.1126 15.4808C23.1126 14.4709 22.908 13.4866 22.5118 12.5534C22.1155 11.6202 21.5658 10.8021 20.8882 10.1245C20.2107 9.44701 19.4054 8.9101 18.4722 8.50103C17.539 8.09196 16.5546 7.90021 15.532 7.90021C14.5093 7.90021 13.5249 8.10474 12.5918 8.50103C11.6586 8.9101 10.8532 9.44701 10.1757 10.1245C9.49814 10.8021 8.96124 11.6074 8.55216 12.5534C8.14309 13.4994 7.92577 14.4837 7.92577 15.4936ZM14.2664 4.23134V1.25278C14.2664 0.907629 14.3942 0.613608 14.6371 0.370722C14.88 0.127835 15.174 0 15.5192 0C15.8643 0 16.1583 0.127835 16.4012 0.370722C16.6441 0.613608 16.772 0.907629 16.772 1.25278V4.21856C16.772 4.56371 16.6441 4.85773 16.4012 5.10062C16.1583 5.34351 15.8643 5.47134 15.5192 5.47134C15.174 5.47134 14.88 5.34351 14.6371 5.10062C14.3814 4.85773 14.2664 4.57649 14.2664 4.23134ZM22.2816 7.52948C22.2816 7.17155 22.3967 6.87753 22.614 6.67299L24.6977 4.58928C24.9023 4.33361 25.1963 4.20577 25.567 4.20577C25.9122 4.20577 26.2062 4.33361 26.4363 4.57649C26.6664 4.81938 26.7814 5.1134 26.7814 5.45856C26.7814 5.81649 26.6792 6.11052 26.4619 6.32784L24.3398 8.41155C24.0458 8.65443 23.7517 8.76948 23.4577 8.76948C23.1254 8.76948 22.8441 8.65443 22.614 8.41155C22.3967 8.16866 22.2816 7.87464 22.2816 7.52948ZM25.5926 15.4936C25.5926 15.1485 25.7076 14.8672 25.9249 14.6371C26.1423 14.407 26.4363 14.292 26.7814 14.292H29.7472C30.0924 14.292 30.3864 14.407 30.6293 14.6371C30.8722 14.8672 31 15.1485 31 15.4936C31 15.8388 30.8722 16.1328 30.6293 16.3885C30.3864 16.6441 30.0924 16.772 29.7472 16.772H26.7814C26.4491 16.772 26.1678 16.6441 25.9377 16.4012C25.7076 16.1583 25.5926 15.8515 25.5926 15.4936Z" fill="black"/>
</g>
</svg>
